<mxfile host="app.diagrams.net" agent="Mozilla/5.0 (Windows NT 10.0; Win64; x64) AppleWebKit/537.36 (KHTML, like Gecko) Chrome/126.0.0.0 Safari/537.36 OPR/112.0.0.0" version="24.7.8">
  <diagram name="Page-1" id="LneFHxVznUX6fQeCOE5-">
    <mxGraphModel dx="4658" dy="2570" grid="1" gridSize="10" guides="1" tooltips="1" connect="1" arrows="1" fold="1" page="1" pageScale="1" pageWidth="827" pageHeight="1169" math="0" shadow="0">
      <root>
        <mxCell id="0" />
        <mxCell id="1" parent="0" />
        <mxCell id="3bfUR8yqg2JN8LsBs6vQ-1" value="hub classes" style="shape=umlFrame;whiteSpace=wrap;html=1;pointerEvents=0;recursiveResize=0;container=1;collapsible=0;width=160;" parent="1" vertex="1">
          <mxGeometry x="40" y="40" width="1680" height="1150" as="geometry" />
        </mxCell>
        <mxCell id="3bfUR8yqg2JN8LsBs6vQ-14" value="&lt;span style=&quot;font-weight: 400;&quot;&gt;de.thowl.klimaralley.server.web.auth&lt;/span&gt;" style="shape=folder;fontStyle=1;tabWidth=240;tabHeight=30;tabPosition=left;html=1;boundedLbl=1;labelInHeader=1;container=1;collapsible=0;recursiveResize=0;whiteSpace=wrap;" parent="3bfUR8yqg2JN8LsBs6vQ-1" vertex="1">
          <mxGeometry x="720" y="880" width="590" height="240" as="geometry" />
        </mxCell>
        <mxCell id="3bfUR8yqg2JN8LsBs6vQ-15" value="&lt;p style=&quot;margin:0px;margin-top:4px;text-align:center;&quot;&gt;&lt;i&gt;&amp;lt;&amp;lt;Interface&amp;gt;&amp;gt;&lt;/i&gt;&lt;br&gt;&lt;b&gt;authAPI&lt;/b&gt;&lt;br&gt;&lt;/p&gt;&lt;hr size=&quot;1&quot; style=&quot;border-style:solid;&quot;&gt;&lt;p style=&quot;margin:0px;margin-left:4px;&quot;&gt;GET:&amp;nbsp; /auth/login&lt;/p&gt;&lt;p style=&quot;margin:0px;margin-left:4px;&quot;&gt;GET: /auth/register&lt;/p&gt;&lt;p style=&quot;margin:0px;margin-left:4px;&quot;&gt;&lt;/p&gt;" style="verticalAlign=top;align=left;overflow=fill;html=1;whiteSpace=wrap;" parent="3bfUR8yqg2JN8LsBs6vQ-14" vertex="1">
          <mxGeometry x="200" y="61.25" width="200" height="140" as="geometry" />
        </mxCell>
        <mxCell id="3bfUR8yqg2JN8LsBs6vQ-17" value="&lt;span style=&quot;font-weight: 400;&quot;&gt;de.thowl.klimaralley.server.auth&lt;/span&gt;" style="shape=folder;fontStyle=1;tabWidth=260;tabHeight=30;tabPosition=left;html=1;boundedLbl=1;labelInHeader=1;container=1;collapsible=0;recursiveResize=0;whiteSpace=wrap;" parent="3bfUR8yqg2JN8LsBs6vQ-1" vertex="1">
          <mxGeometry x="720" y="550" width="840" height="250" as="geometry" />
        </mxCell>
        <mxCell id="3bfUR8yqg2JN8LsBs6vQ-18" value="&lt;p style=&quot;margin:0px;margin-top:4px;text-align:center;&quot;&gt;&lt;i&gt;&amp;lt;&amp;lt;Interface&amp;gt;&amp;gt;&lt;/i&gt;&lt;br&gt;&lt;b&gt;AuthentificationService&lt;/b&gt;&lt;br&gt;&lt;/p&gt;&lt;hr size=&quot;1&quot; style=&quot;border-style:solid;&quot;&gt;&lt;hr size=&quot;1&quot; style=&quot;border-style:solid;&quot;&gt;&lt;p style=&quot;margin:0px;margin-left:4px;&quot;&gt;+ isValid(jwt: String): boolean&lt;br&gt;+ validateEmail(email: String): boolean&lt;br&gt;&lt;/p&gt;&lt;p style=&quot;margin:0px;margin-left:4px;&quot;&gt;+ validatePassword(password: String): boolean&lt;br&gt;+ check&lt;span style=&quot;background-color: initial;&quot;&gt;Password(bcrypt: String,password: String): boolean&lt;/span&gt;&lt;/p&gt;&lt;p style=&quot;margin:0px;margin-left:4px;&quot;&gt;&lt;span style=&quot;background-color: initial;&quot;&gt;+ register(username: String, email: String, password: String): void&lt;/span&gt;&lt;/p&gt;&lt;p style=&quot;margin:0px;margin-left:4px;&quot;&gt;+ updateUser(id:long, username: String, email: String, password: String): void&lt;span style=&quot;background-color: initial;&quot;&gt;&lt;br&gt;&lt;/span&gt;&lt;/p&gt;&lt;p style=&quot;margin:0px;margin-left:4px;&quot;&gt;+ login(email: String, password: String): String&lt;span style=&quot;background-color: initial;&quot;&gt;&lt;br&gt;&lt;/span&gt;&lt;/p&gt;" style="verticalAlign=top;align=left;overflow=fill;html=1;whiteSpace=wrap;" parent="3bfUR8yqg2JN8LsBs6vQ-17" vertex="1">
          <mxGeometry x="20" y="50" width="430" height="182.5" as="geometry" />
        </mxCell>
        <mxCell id="3bfUR8yqg2JN8LsBs6vQ-19" value="&lt;p style=&quot;margin:0px;margin-top:4px;text-align:center;&quot;&gt;&lt;b&gt;Tokenizer&lt;/b&gt;&lt;/p&gt;&lt;hr size=&quot;1&quot; style=&quot;border-style:solid;&quot;&gt;&lt;p style=&quot;margin:0px;margin-left:4px;&quot;&gt;+ key: Key&lt;/p&gt;&lt;p style=&quot;margin:0px;margin-left:4px;&quot;&gt;+ EXPIRATION_TIME: long&lt;/p&gt;&lt;hr size=&quot;1&quot; style=&quot;border-style:solid;&quot;&gt;&lt;p style=&quot;margin:0px;margin-left:4px;&quot;&gt;+ generateToken(user: User): String&lt;/p&gt;&lt;p style=&quot;margin:0px;margin-left:4px;&quot;&gt;+ parseToken(token: String): Claims&lt;/p&gt;&lt;p style=&quot;margin:0px;margin-left:4px;&quot;&gt;+ getBearer(bearer: String): String&lt;/p&gt;&lt;p style=&quot;margin:0px;margin-left:4px;&quot;&gt;&lt;br&gt;&lt;/p&gt;" style="verticalAlign=top;align=left;overflow=fill;html=1;whiteSpace=wrap;" parent="3bfUR8yqg2JN8LsBs6vQ-17" vertex="1">
          <mxGeometry x="550" y="76.25" width="240" height="130" as="geometry" />
        </mxCell>
        <mxCell id="3bfUR8yqg2JN8LsBs6vQ-20" value="" style="endArrow=none;html=1;rounded=0;exitX=1;exitY=0.5;exitDx=0;exitDy=0;entryX=0;entryY=0.5;entryDx=0;entryDy=0;" parent="3bfUR8yqg2JN8LsBs6vQ-17" source="3bfUR8yqg2JN8LsBs6vQ-18" target="3bfUR8yqg2JN8LsBs6vQ-19" edge="1">
          <mxGeometry width="50" height="50" relative="1" as="geometry">
            <mxPoint x="40" y="160" as="sourcePoint" />
            <mxPoint x="90" y="110" as="targetPoint" />
          </mxGeometry>
        </mxCell>
        <mxCell id="3bfUR8yqg2JN8LsBs6vQ-24" value="&lt;span style=&quot;font-weight: 400;&quot;&gt;de.thowl.klimaralley.server.auth.storage&lt;/span&gt;" style="shape=folder;fontStyle=1;tabWidth=260;tabHeight=30;tabPosition=left;html=1;boundedLbl=1;labelInHeader=1;container=1;collapsible=0;recursiveResize=0;whiteSpace=wrap;" parent="3bfUR8yqg2JN8LsBs6vQ-1" vertex="1">
          <mxGeometry x="720" y="80" width="420" height="440" as="geometry" />
        </mxCell>
        <mxCell id="3bfUR8yqg2JN8LsBs6vQ-25" value="&lt;div&gt;User&lt;/div&gt;" style="swimlane;fontStyle=1;align=center;verticalAlign=top;childLayout=stackLayout;horizontal=1;startSize=26;horizontalStack=0;resizeParent=1;resizeParentMax=0;resizeLast=0;collapsible=1;marginBottom=0;whiteSpace=wrap;html=1;" parent="3bfUR8yqg2JN8LsBs6vQ-24" vertex="1">
          <mxGeometry x="120" y="50" width="200" height="140" as="geometry">
            <mxRectangle x="440" y="640" width="110" height="30" as="alternateBounds" />
          </mxGeometry>
        </mxCell>
        <mxCell id="3bfUR8yqg2JN8LsBs6vQ-26" value="&lt;div&gt;- id: long&lt;/div&gt;&lt;div&gt;- username: String&lt;/div&gt;&lt;div&gt;- password: String&lt;/div&gt;&lt;div&gt;&lt;span style=&quot;background-color: initial;&quot;&gt;- water: int&lt;/span&gt;&lt;br&gt;&lt;/div&gt;&lt;div&gt;- watercoins: int&lt;/div&gt;" style="text;strokeColor=none;fillColor=none;align=left;verticalAlign=top;spacingLeft=4;spacingRight=4;overflow=hidden;rotatable=0;points=[[0,0.5],[1,0.5]];portConstraint=eastwest;whiteSpace=wrap;html=1;" parent="3bfUR8yqg2JN8LsBs6vQ-25" vertex="1">
          <mxGeometry y="26" width="200" height="114" as="geometry" />
        </mxCell>
        <mxCell id="3bfUR8yqg2JN8LsBs6vQ-28" value="&lt;p style=&quot;margin:0px;margin-top:4px;text-align:center;&quot;&gt;&lt;i&gt;&amp;lt;&amp;lt;Interface&amp;gt;&amp;gt;&lt;/i&gt;&lt;br&gt;&lt;b&gt;UserRepository&lt;/b&gt;&lt;br&gt;&lt;/p&gt;&lt;hr size=&quot;1&quot; style=&quot;border-style:solid;&quot;&gt;&lt;hr size=&quot;1&quot; style=&quot;border-style:solid;&quot;&gt;&lt;p style=&quot;margin:0px;margin-left:4px;&quot;&gt;&lt;span style=&quot;background-color: initial;&quot;&gt;+ findByUsername(username: String)&lt;/span&gt;&lt;span style=&quot;background-color: initial;&quot;&gt;: User&lt;br&gt;&lt;/span&gt;&lt;span style=&quot;background-color: initial;&quot;&gt;+ findByEmail(email: String)&lt;/span&gt;&lt;span style=&quot;background-color: initial;&quot;&gt;: User&lt;/span&gt;&lt;br&gt;&lt;/p&gt;&lt;p style=&quot;margin:0px;margin-left:4px;&quot;&gt;&lt;span style=&quot;background-color: initial;&quot;&gt;&lt;br&gt;&lt;/span&gt;&lt;/p&gt;" style="verticalAlign=top;align=left;overflow=fill;html=1;whiteSpace=wrap;" parent="3bfUR8yqg2JN8LsBs6vQ-24" vertex="1">
          <mxGeometry x="73.75" y="230" width="292.5" height="130" as="geometry" />
        </mxCell>
        <mxCell id="3bfUR8yqg2JN8LsBs6vQ-29" value="" style="endArrow=none;html=1;rounded=0;exitX=0.5;exitY=0;exitDx=0;exitDy=0;entryX=0.499;entryY=0.999;entryDx=0;entryDy=0;entryPerimeter=0;" parent="3bfUR8yqg2JN8LsBs6vQ-24" source="3bfUR8yqg2JN8LsBs6vQ-28" target="3bfUR8yqg2JN8LsBs6vQ-26" edge="1">
          <mxGeometry width="50" height="50" relative="1" as="geometry">
            <mxPoint x="470" y="440" as="sourcePoint" />
            <mxPoint x="140" y="220" as="targetPoint" />
          </mxGeometry>
        </mxCell>
        <mxCell id="3bfUR8yqg2JN8LsBs6vQ-30" value="" style="endArrow=none;html=1;rounded=0;exitX=0.5;exitY=1;exitDx=0;exitDy=0;entryX=0.5;entryY=0;entryDx=0;entryDy=0;" parent="3bfUR8yqg2JN8LsBs6vQ-1" source="3bfUR8yqg2JN8LsBs6vQ-28" target="3bfUR8yqg2JN8LsBs6vQ-18" edge="1">
          <mxGeometry width="50" height="50" relative="1" as="geometry">
            <mxPoint x="860" y="710" as="sourcePoint" />
            <mxPoint x="910" y="660" as="targetPoint" />
          </mxGeometry>
        </mxCell>
        <mxCell id="3bfUR8yqg2JN8LsBs6vQ-31" value="&lt;span style=&quot;font-weight: 400;&quot;&gt;de.thowl.klimaralley.server.scoreboard.storage&lt;/span&gt;" style="shape=folder;fontStyle=1;tabWidth=260;tabHeight=30;tabPosition=left;html=1;boundedLbl=1;labelInHeader=1;container=1;collapsible=0;recursiveResize=0;whiteSpace=wrap;" parent="3bfUR8yqg2JN8LsBs6vQ-1" vertex="1">
          <mxGeometry x="40" y="80" width="600" height="440" as="geometry" />
        </mxCell>
        <mxCell id="3bfUR8yqg2JN8LsBs6vQ-32" value="&lt;div&gt;ScoreBoardEntry&lt;/div&gt;" style="swimlane;fontStyle=1;align=center;verticalAlign=top;childLayout=stackLayout;horizontal=1;startSize=26;horizontalStack=0;resizeParent=1;resizeParentMax=0;resizeLast=0;collapsible=1;marginBottom=0;whiteSpace=wrap;html=1;" parent="3bfUR8yqg2JN8LsBs6vQ-31" vertex="1">
          <mxGeometry x="50" y="50" width="200" height="120" as="geometry">
            <mxRectangle x="440" y="640" width="110" height="30" as="alternateBounds" />
          </mxGeometry>
        </mxCell>
        <mxCell id="3bfUR8yqg2JN8LsBs6vQ-33" value="&lt;div&gt;+ id: long&lt;/div&gt;&lt;div&gt;+ user: User&lt;/div&gt;&lt;div&gt;+ score: int&lt;br&gt;+ game: Game&lt;br&gt;&lt;/div&gt;" style="text;strokeColor=none;fillColor=none;align=left;verticalAlign=top;spacingLeft=4;spacingRight=4;overflow=hidden;rotatable=0;points=[[0,0.5],[1,0.5]];portConstraint=eastwest;whiteSpace=wrap;html=1;" parent="3bfUR8yqg2JN8LsBs6vQ-32" vertex="1">
          <mxGeometry y="26" width="200" height="94" as="geometry" />
        </mxCell>
        <mxCell id="3bfUR8yqg2JN8LsBs6vQ-39" value="&lt;p style=&quot;margin:0px;margin-top:4px;text-align:center;&quot;&gt;&lt;i&gt;&amp;lt;&amp;lt;Interface&amp;gt;&amp;gt;&lt;/i&gt;&lt;br&gt;&lt;b&gt;ScoreBoardRepository&lt;/b&gt;&lt;br&gt;&lt;/p&gt;&lt;hr size=&quot;1&quot; style=&quot;border-style:solid;&quot;&gt;&lt;hr size=&quot;1&quot; style=&quot;border-style:solid;&quot;&gt;&lt;p style=&quot;margin:0px;margin-left:4px;&quot;&gt;&lt;span style=&quot;background-color: initial;&quot;&gt;+ findAllByGame()&lt;/span&gt;&lt;span style=&quot;background-color: initial;&quot;&gt;: List&amp;lt;ScoreBoardEntry&amp;gt;&lt;/span&gt;&lt;br&gt;&lt;/p&gt;&lt;p style=&quot;margin:0px;margin-left:4px;&quot;&gt;&lt;span style=&quot;background-color: initial;&quot;&gt;&lt;br&gt;&lt;/span&gt;&lt;/p&gt;" style="verticalAlign=top;align=left;overflow=fill;html=1;whiteSpace=wrap;" parent="3bfUR8yqg2JN8LsBs6vQ-31" vertex="1">
          <mxGeometry x="27.5" y="230" width="245" height="130" as="geometry" />
        </mxCell>
        <mxCell id="3bfUR8yqg2JN8LsBs6vQ-40" value="" style="endArrow=none;html=1;rounded=0;exitX=0.5;exitY=0;exitDx=0;exitDy=0;entryX=0.499;entryY=0.999;entryDx=0;entryDy=0;entryPerimeter=0;" parent="3bfUR8yqg2JN8LsBs6vQ-31" source="3bfUR8yqg2JN8LsBs6vQ-39" target="3bfUR8yqg2JN8LsBs6vQ-33" edge="1">
          <mxGeometry width="50" height="50" relative="1" as="geometry">
            <mxPoint x="470" y="440" as="sourcePoint" />
            <mxPoint x="140" y="220" as="targetPoint" />
          </mxGeometry>
        </mxCell>
        <mxCell id="3bfUR8yqg2JN8LsBs6vQ-43" value="&lt;p style=&quot;margin:0px;margin-top:4px;text-align:center;&quot;&gt;&lt;i&gt;&amp;lt;&amp;lt;enumeration&amp;gt;&amp;gt;&lt;/i&gt;&lt;br&gt;&lt;b&gt;Game&lt;/b&gt;&lt;/p&gt;&lt;hr size=&quot;1&quot; style=&quot;border-style:solid;&quot;&gt;&lt;p style=&quot;margin:0px;margin-left:4px;&quot;&gt;FLUT&lt;/p&gt;&lt;p style=&quot;margin:0px;margin-left:4px;&quot;&gt;WASSERARM&lt;br&gt;RECYCLING&lt;/p&gt;" style="verticalAlign=top;align=left;overflow=fill;html=1;whiteSpace=wrap;" parent="3bfUR8yqg2JN8LsBs6vQ-31" vertex="1">
          <mxGeometry x="370" y="73" width="190" height="100" as="geometry" />
        </mxCell>
        <mxCell id="3bfUR8yqg2JN8LsBs6vQ-44" value="" style="endArrow=none;html=1;rounded=0;exitX=1;exitY=0.5;exitDx=0;exitDy=0;entryX=0;entryY=0.5;entryDx=0;entryDy=0;" parent="3bfUR8yqg2JN8LsBs6vQ-31" source="3bfUR8yqg2JN8LsBs6vQ-33" target="3bfUR8yqg2JN8LsBs6vQ-43" edge="1">
          <mxGeometry width="50" height="50" relative="1" as="geometry">
            <mxPoint x="390" y="160" as="sourcePoint" />
            <mxPoint x="440" y="110" as="targetPoint" />
          </mxGeometry>
        </mxCell>
        <mxCell id="3bfUR8yqg2JN8LsBs6vQ-49" value="&lt;span style=&quot;font-weight: 400;&quot;&gt;de.thowl.klimaralley.server.scoreboard.core&lt;/span&gt;" style="shape=folder;fontStyle=1;tabWidth=250;tabHeight=30;tabPosition=left;html=1;boundedLbl=1;labelInHeader=1;container=1;collapsible=0;recursiveResize=0;whiteSpace=wrap;" parent="3bfUR8yqg2JN8LsBs6vQ-1" vertex="1">
          <mxGeometry x="40" y="560" width="590" height="240" as="geometry" />
        </mxCell>
        <mxCell id="3bfUR8yqg2JN8LsBs6vQ-50" value="&lt;p style=&quot;margin:0px;margin-top:4px;text-align:center;&quot;&gt;&lt;i&gt;&amp;lt;&amp;lt;Interface&amp;gt;&amp;gt;&lt;/i&gt;&lt;br&gt;&lt;b&gt;ScoreboardService&lt;/b&gt;&lt;br&gt;&lt;/p&gt;&lt;hr size=&quot;1&quot; style=&quot;border-style:solid;&quot;&gt;&lt;hr size=&quot;1&quot; style=&quot;border-style:solid;&quot;&gt;&lt;p style=&quot;margin:0px;margin-left:4px;&quot;&gt;+ addEntry(userId: long, score: int, game: Game): void&lt;/p&gt;&lt;p style=&quot;margin:0px;margin-left:4px;&quot;&gt;&lt;br&gt;&lt;/p&gt;" style="verticalAlign=top;align=left;overflow=fill;html=1;whiteSpace=wrap;" parent="3bfUR8yqg2JN8LsBs6vQ-49" vertex="1">
          <mxGeometry x="60" y="81.25" width="480" height="100" as="geometry" />
        </mxCell>
        <mxCell id="3bfUR8yqg2JN8LsBs6vQ-53" value="" style="endArrow=none;html=1;rounded=0;exitX=0.5;exitY=0;exitDx=0;exitDy=0;entryX=0.5;entryY=1;entryDx=0;entryDy=0;" parent="3bfUR8yqg2JN8LsBs6vQ-1" source="3bfUR8yqg2JN8LsBs6vQ-50" target="3bfUR8yqg2JN8LsBs6vQ-39" edge="1">
          <mxGeometry width="50" height="50" relative="1" as="geometry">
            <mxPoint x="1160" y="410" as="sourcePoint" />
            <mxPoint x="1210" y="360" as="targetPoint" />
          </mxGeometry>
        </mxCell>
        <mxCell id="UhXqjl5CLLxtaWf8M3ay-3" value="" style="endArrow=none;html=1;rounded=0;exitX=0.5;exitY=1;exitDx=0;exitDy=0;entryX=0.5;entryY=0;entryDx=0;entryDy=0;" edge="1" parent="3bfUR8yqg2JN8LsBs6vQ-1" source="3bfUR8yqg2JN8LsBs6vQ-18" target="3bfUR8yqg2JN8LsBs6vQ-15">
          <mxGeometry width="50" height="50" relative="1" as="geometry">
            <mxPoint x="350" y="651" as="sourcePoint" />
            <mxPoint x="340" y="741" as="targetPoint" />
          </mxGeometry>
        </mxCell>
      </root>
    </mxGraphModel>
  </diagram>
</mxfile>
